<svg xmlns="http://www.w3.org/2000/svg" width="256" height="256" viewBox="0 0 256 256">
  <defs>
    <style>
      .t{font:700 30px Arial, Helvetica, sans-serif;letter-spacing:6px}
    </style>
  </defs>
  <rect width="256" height="256" rx="48" fill="#ffffff"/>
  <path d="M128 52c-26 0-48 22-48 48 0 20 12 37 29 45v33c0 14 11 26 26 26h2c14 0 25-12 25-26v-33c17-8 30-25 30-45 0-26-22-48-48-48z"
        fill="#f7931e"/>
  <path d="M138 92v54c0 6-5 11-11 11s-11-5-11-11v-18" fill="none" stroke="#ffffff" stroke-width="10" stroke-linecap="round"/>
  <text x="128" y="222" fill="#f7931e" text-anchor="middle" class="t">SWIGGY</text>
</svg>

